<svg version="1.1" id="Layer_1" xmlns="http://www.w3.org/2000/svg" xmlns:xlink="http://www.w3.org/1999/xlink" x="0px" y="0px"
	 width="100%" viewBox="0 0 600 600" enable-background="new 0 0 600 600" xml:space="preserve">
<path fill="#F8F8F8" opacity="1.000000" stroke="none" 
	d="
M266.000000,1.000001 
	C289.020905,1.000000 312.041779,1.000000 335.226501,1.362769 
	C338.474579,2.482062 341.549500,3.279338 344.644684,3.988273 
	C360.624146,7.648271 376.780579,10.672032 392.547546,15.088052 
	C411.746399,20.465284 429.772797,28.870562 447.242676,38.570236 
	C466.725372,49.387470 484.920166,62.035412 501.263855,77.042274 
	C515.686523,90.285240 529.210815,104.457008 541.012268,120.296745 
	C559.914185,145.666733 574.695496,173.082687 585.010376,202.941238 
	C591.870728,222.800323 596.893433,243.089752 599.077820,264.036926 
	C599.152161,264.750366 600.334229,265.348267 601.000000,266.000000 
	C601.000000,289.020905 601.000000,312.041779 600.637207,335.226501 
	C599.517883,338.474640 598.720581,341.549622 598.011597,344.644836 
	C594.351685,360.624268 591.327820,376.780731 586.911926,392.547668 
	C581.534790,411.746552 573.129395,429.772888 563.429810,447.242737 
	C552.612671,466.725494 539.964600,484.920288 524.957703,501.263947 
	C511.714752,515.686584 497.542969,529.210754 481.703278,541.012146 
	C456.333252,559.914124 428.917297,574.695557 399.058655,585.010254 
	C379.199615,591.870667 358.910248,596.893555 337.963043,599.077759 
	C337.249634,599.152100 336.651733,600.334229 336.000000,601.000000 
	C312.979095,601.000000 289.958221,601.000000 266.773499,600.637207 
	C263.525360,599.517883 260.450378,598.720581 257.355194,598.011658 
	C241.375763,594.351624 225.219345,591.327759 209.452393,586.911865 
	C190.253571,581.534729 172.227234,573.129456 154.757416,563.429871 
	C135.274689,552.612610 117.079834,539.964661 100.736084,524.957764 
	C86.313416,511.714783 72.789238,497.542938 60.987831,481.703278 
	C42.085758,456.333313 27.304388,428.917297 16.989628,399.058655 
	C10.129251,379.199585 5.106401,358.910217 2.922284,337.963013 
	C2.847900,337.249603 1.665791,336.651703 1.000003,336.000000 
	C1.000000,312.979095 1.000000,289.958221 1.362771,266.773499 
	C2.482066,263.525421 3.279344,260.450500 3.988277,257.355316 
	C7.648274,241.375870 10.672102,225.219437 15.088049,209.452484 
	C20.465206,190.253586 28.870592,172.227234 38.570240,154.757339 
	C49.387444,135.274628 62.035400,117.079842 77.042267,100.736145 
	C90.285225,86.313477 104.457008,72.789223 120.296715,60.987823 
	C145.666748,42.085835 173.082718,27.304390 202.941345,16.989622 
	C222.800400,10.129234 243.089798,5.106409 264.036987,2.922281 
	C264.750397,2.847896 265.348267,1.665788 266.000000,1.000001 
M374.012756,79.420288 
	C367.425446,73.024101 359.431335,72.823151 354.775085,80.613441 
	C348.654022,90.854477 343.268829,101.776306 339.315216,113.020035 
	C331.845795,134.262329 325.599701,155.935730 318.897736,177.446335 
	C316.855194,184.002014 314.286072,185.944183 307.509979,185.914337 
	C301.361694,185.887253 295.207001,185.835571 289.065643,186.070389 
	C280.038971,186.415497 280.042877,186.519943 278.980591,177.288788 
	C278.942596,176.958740 278.958771,176.613937 278.867859,176.299698 
	C274.847870,162.406967 271.561066,148.245514 266.607178,134.693542 
	C260.069427,116.808586 252.410965,99.319984 244.789337,81.855164 
	C243.163452,78.129494 240.234497,74.222038 236.834976,72.189041 
	C231.112839,68.767044 225.079041,71.821236 221.217392,79.165398 
	C206.064316,107.983818 192.941895,137.574387 185.339493,169.449585 
	C181.245636,186.614319 177.797958,203.822189 178.145065,221.480804 
	C178.366440,232.742355 180.304596,243.965363 180.651367,255.230957 
	C180.877350,262.571960 179.411530,269.949036 179.092026,277.326782 
	C178.642929,287.697052 177.745178,298.181366 183.605209,308.100830 
	C181.732925,308.448792 180.649536,308.761078 179.549774,308.837280 
	C168.785461,309.583344 158.023392,310.386536 147.248795,310.943268 
	C144.381226,311.091431 143.220764,311.805847 144.408600,315.002625 
	C145.702072,315.002625 147.010864,315.070099 148.310913,314.992004 
	C159.416122,314.324921 170.516769,313.570923 181.627594,313.021301 
	C183.037125,312.951538 185.250977,313.486176 185.802673,314.466492 
	C188.071259,318.497589 189.841705,322.809021 191.699448,326.810730 
	C182.825134,328.918518 174.185211,330.930511 165.567108,333.032043 
	C160.119324,334.360504 154.677887,335.733032 149.299332,337.310028 
	C148.369293,337.582733 147.767792,338.975922 147.014526,339.851532 
	C148.069931,340.291779 149.092606,340.901337 150.192032,341.113678 
	C150.946274,341.259369 151.816711,340.890442 152.619003,340.687469 
	C163.775711,337.864716 174.899628,334.904907 186.093658,332.239441 
	C195.091705,330.096832 198.799393,331.932434 202.942184,340.287689 
	C190.149490,347.474304 177.292679,354.608398 164.552643,361.945282 
	C162.540222,363.104218 161.055420,365.179291 159.326660,366.830811 
	C159.698120,367.348999 160.069595,367.867188 160.441055,368.385406 
	C162.343704,367.641815 164.336700,367.070282 166.134186,366.126465 
	C176.931290,360.457245 187.740982,354.807251 198.430954,348.940369 
	C205.792694,344.900085 212.205536,345.030548 219.136749,350.550110 
	C223.793854,354.258698 229.711273,356.555817 235.329956,358.829163 
	C239.504196,360.518158 241.850784,362.260284 239.994354,367.154358 
	C235.203766,379.783600 230.588135,392.479279 225.918564,405.154297 
	C216.716141,430.133118 204.043625,453.480133 192.335373,477.298279 
	C183.868362,494.522797 177.168060,512.507690 173.890732,531.675781 
	C241.156586,531.675781 308.054749,531.675781 375.519958,531.675781 
	C374.422363,523.451477 374.214081,515.390747 372.180817,507.820190 
	C364.768341,480.221283 354.781830,453.291107 350.473267,424.892853 
	C347.749084,406.937408 345.493744,388.911102 342.970215,370.924713 
	C342.400330,366.862701 344.134399,364.907623 348.012177,363.883545 
	C359.219299,360.923981 369.868408,356.476257 379.159119,349.507233 
	C383.001495,346.625031 386.414124,346.655365 390.666443,347.606812 
	C406.034454,351.045563 420.567932,356.677856 434.681824,363.542358 
	C435.776672,364.074890 437.184052,363.964844 438.446198,364.153442 
	C424.233032,350.867065 404.962769,349.630341 388.145752,342.087158 
	C391.484436,338.090240 394.146240,334.461639 397.303955,331.333649 
	C398.628174,330.021881 401.007080,329.138031 402.899231,329.150604 
	C409.716431,329.195953 416.583588,329.289581 423.332092,330.148468 
	C431.313599,331.164337 439.209259,332.906342 447.106445,334.509216 
	C450.441010,335.186005 453.684509,336.311432 456.969421,337.232941 
	C457.088562,336.693573 457.207703,336.154175 457.326843,335.614807 
	C440.040680,325.407990 420.159210,328.401337 401.517578,325.690247 
	C400.885498,318.310791 404.801544,310.750549 409.545288,310.045044 
	C423.779633,307.928101 438.000732,305.488495 452.495087,307.470825 
	C453.071106,307.549591 453.790283,306.581421 454.442749,306.101074 
	C454.346222,305.657684 454.249695,305.214294 454.153168,304.770905 
	C438.769409,302.601837 423.398712,305.108429 407.975983,306.355988 
	C407.916260,305.382904 407.748535,304.866394 407.878143,304.440460 
	C412.186584,290.285583 410.236755,276.300293 407.092438,262.253876 
	C406.172058,258.142273 406.118439,253.756866 406.251160,249.515198 
	C406.352570,246.273468 407.857391,243.067245 407.902435,239.833588 
	C408.100006,225.642441 409.000610,211.356262 407.731445,197.277176 
	C406.287964,181.264252 403.315521,165.329315 400.036530,149.562439 
	C397.802368,138.819397 393.889465,128.426559 390.748688,117.870728 
	C386.801361,104.604057 383.152527,91.212479 374.012756,79.420288 
z"/>
<path fill="#000000" opacity="1.000000" stroke="none" 
	d="
M265.531342,1.000001 
	C265.348267,1.665788 264.750397,2.847896 264.036987,2.922281 
	C243.089798,5.106409 222.800400,10.129234 202.941345,16.989622 
	C173.082718,27.304390 145.666748,42.085835 120.296715,60.987823 
	C104.457008,72.789223 90.285225,86.313477 77.042267,100.736145 
	C62.035400,117.079842 49.387444,135.274628 38.570240,154.757339 
	C28.870592,172.227234 20.465206,190.253586 15.088049,209.452484 
	C10.672102,225.219437 7.648274,241.375870 3.988277,257.355316 
	C3.279344,260.450500 2.482066,263.525421 1.362771,266.304871 
	C1.000000,177.739624 1.000000,89.479263 1.000000,1.000000 
	C89.020775,1.000000 177.041733,1.000000 265.531342,1.000001 
z"/>
<path fill="#000000" opacity="1.000000" stroke="none" 
	d="
M601.000000,265.531342 
	C600.334229,265.348267 599.152161,264.750366 599.077820,264.036926 
	C596.893433,243.089752 591.870728,222.800323 585.010376,202.941238 
	C574.695496,173.082687 559.914185,145.666733 541.012268,120.296745 
	C529.210815,104.457008 515.686523,90.285240 501.263855,77.042274 
	C484.920166,62.035412 466.725372,49.387470 447.242676,38.570236 
	C429.772797,28.870562 411.746399,20.465284 392.547546,15.088052 
	C376.780579,10.672032 360.624146,7.648271 344.644684,3.988273 
	C341.549500,3.279338 338.474579,2.482062 335.695129,1.362769 
	C424.260376,1.000000 512.520752,1.000000 601.000000,1.000000 
	C601.000000,89.020775 601.000000,177.041733 601.000000,265.531342 
z"/>
<path fill="#000000" opacity="1.000000" stroke="none" 
	d="
M1.000003,336.468658 
	C1.665791,336.651703 2.847900,337.249603 2.922284,337.963013 
	C5.106401,358.910217 10.129251,379.199585 16.989628,399.058655 
	C27.304388,428.917297 42.085758,456.333313 60.987831,481.703278 
	C72.789238,497.542938 86.313416,511.714783 100.736084,524.957764 
	C117.079834,539.964661 135.274689,552.612610 154.757416,563.429871 
	C172.227234,573.129456 190.253571,581.534729 209.452393,586.911865 
	C225.219345,591.327759 241.375763,594.351624 257.355194,598.011658 
	C260.450378,598.720581 263.525360,599.517883 266.304840,600.637207 
	C177.739624,601.000000 89.479263,601.000000 1.000000,601.000000 
	C1.000000,512.979248 1.000000,424.958282 1.000003,336.468658 
z"/>
<path fill="#000000" opacity="1.000000" stroke="none" 
	d="
M336.468628,601.000000 
	C336.651733,600.334229 337.249634,599.152100 337.963043,599.077759 
	C358.910248,596.893555 379.199615,591.870667 399.058655,585.010254 
	C428.917297,574.695557 456.333252,559.914124 481.703278,541.012146 
	C497.542969,529.210754 511.714752,515.686584 524.957703,501.263947 
	C539.964600,484.920288 552.612671,466.725494 563.429810,447.242737 
	C573.129395,429.772888 581.534790,411.746552 586.911926,392.547668 
	C591.327820,376.780731 594.351685,360.624268 598.011597,344.644836 
	C598.720581,341.549622 599.517883,338.474640 600.637207,335.695160 
	C601.000000,424.260376 601.000000,512.520752 601.000000,601.000000 
	C512.979248,601.000000 424.958282,601.000000 336.468628,601.000000 
z"/>
<path fill="#010101" opacity="1.000000" stroke="none" 
	d="
M374.263550,79.687912 
	C383.152527,91.212479 386.801361,104.604057 390.748688,117.870728 
	C393.889465,128.426559 397.802368,138.819397 400.036530,149.562439 
	C403.315521,165.329315 406.287964,181.264252 407.731445,197.277176 
	C409.000610,211.356262 408.100006,225.642441 407.902435,239.833588 
	C407.857391,243.067245 406.352570,246.273468 406.251160,249.515198 
	C406.118439,253.756866 406.172058,258.142273 407.092438,262.253876 
	C410.236755,276.300293 412.186584,290.285583 407.878143,304.440460 
	C407.748535,304.866394 407.916260,305.382904 407.975983,306.355988 
	C423.398712,305.108429 438.769409,302.601837 454.153168,304.770905 
	C454.249695,305.214294 454.346222,305.657684 454.442749,306.101074 
	C453.790283,306.581421 453.071106,307.549591 452.495087,307.470825 
	C438.000732,305.488495 423.779633,307.928101 409.545288,310.045044 
	C404.801544,310.750549 400.885498,318.310791 401.517578,325.690247 
	C420.159210,328.401337 440.040680,325.407990 457.326843,335.614807 
	C457.207703,336.154175 457.088562,336.693573 456.969421,337.232941 
	C453.684509,336.311432 450.441010,335.186005 447.106445,334.509216 
	C439.209259,332.906342 431.313599,331.164337 423.332092,330.148468 
	C416.583588,329.289581 409.716431,329.195953 402.899231,329.150604 
	C401.007080,329.138031 398.628174,330.021881 397.303955,331.333649 
	C394.146240,334.461639 391.484436,338.090240 388.145752,342.087158 
	C404.962769,349.630341 424.233032,350.867065 438.446198,364.153442 
	C437.184052,363.964844 435.776672,364.074890 434.681824,363.542358 
	C420.567932,356.677856 406.034454,351.045563 390.666443,347.606812 
	C386.414124,346.655365 383.001495,346.625031 379.159119,349.507233 
	C369.868408,356.476257 359.219299,360.923981 348.012177,363.883545 
	C344.134399,364.907623 342.400330,366.862701 342.970215,370.924713 
	C345.493744,388.911102 347.749084,406.937408 350.473267,424.892853 
	C354.781830,453.291107 364.768341,480.221283 372.180817,507.820190 
	C374.214081,515.390747 374.422363,523.451477 375.519958,531.675781 
	C308.054749,531.675781 241.156586,531.675781 173.890732,531.675781 
	C177.168060,512.507690 183.868362,494.522797 192.335373,477.298279 
	C204.043625,453.480133 216.716141,430.133118 225.918564,405.154297 
	C230.588135,392.479279 235.203766,379.783600 239.994354,367.154358 
	C241.850784,362.260284 239.504196,360.518158 235.329956,358.829163 
	C229.711273,356.555817 223.793854,354.258698 219.136749,350.550110 
	C212.205536,345.030548 205.792694,344.900085 198.430954,348.940369 
	C187.740982,354.807251 176.931290,360.457245 166.134186,366.126465 
	C164.336700,367.070282 162.343704,367.641815 160.441055,368.385406 
	C160.069595,367.867188 159.698120,367.348999 159.326660,366.830811 
	C161.055420,365.179291 162.540222,363.104218 164.552643,361.945282 
	C177.292679,354.608398 190.149490,347.474304 202.942184,340.287689 
	C198.799393,331.932434 195.091705,330.096832 186.093658,332.239441 
	C174.899628,334.904907 163.775711,337.864716 152.619003,340.687469 
	C151.816711,340.890442 150.946274,341.259369 150.192032,341.113678 
	C149.092606,340.901337 148.069931,340.291779 147.014526,339.851532 
	C147.767792,338.975922 148.369293,337.582733 149.299332,337.310028 
	C154.677887,335.733032 160.119324,334.360504 165.567108,333.032043 
	C174.185211,330.930511 182.825134,328.918518 191.699448,326.810730 
	C189.841705,322.809021 188.071259,318.497589 185.802673,314.466492 
	C185.250977,313.486176 183.037125,312.951538 181.627594,313.021301 
	C170.516769,313.570923 159.416122,314.324921 148.310913,314.992004 
	C147.010864,315.070099 145.702072,315.002625 144.408600,315.002625 
	C143.220764,311.805847 144.381226,311.091431 147.248795,310.943268 
	C158.023392,310.386536 168.785461,309.583344 179.549774,308.837280 
	C180.649536,308.761078 181.732925,308.448792 183.605209,308.100830 
	C177.745178,298.181366 178.642929,287.697052 179.092026,277.326782 
	C179.411530,269.949036 180.877350,262.571960 180.651367,255.230957 
	C180.304596,243.965363 178.366440,232.742355 178.145065,221.480804 
	C177.797958,203.822189 181.245636,186.614319 185.339493,169.449585 
	C192.941895,137.574387 206.064316,107.983818 221.217392,79.165398 
	C225.079041,71.821236 231.112839,68.767044 236.834976,72.189041 
	C240.234497,74.222038 243.163452,78.129494 244.789337,81.855164 
	C252.410965,99.319984 260.069427,116.808586 266.607178,134.693542 
	C271.561066,148.245514 274.847870,162.406967 278.867859,176.299698 
	C278.958771,176.613937 278.942596,176.958740 278.980591,177.288788 
	C280.042877,186.519943 280.038971,186.415497 289.065643,186.070389 
	C295.207001,185.835571 301.361694,185.887253 307.509979,185.914337 
	C314.286072,185.944183 316.855194,184.002014 318.897736,177.446335 
	C325.599701,155.935730 331.845795,134.262329 339.315216,113.020035 
	C343.268829,101.776306 348.654022,90.854477 354.775085,80.613441 
	C359.431335,72.823151 367.425446,73.024101 374.263550,79.687912 
M222.573624,289.898102 
	C227.180481,295.030090 232.420486,299.428406 239.452545,300.298920 
	C245.333160,301.026886 251.364822,301.299683 257.271393,300.904358 
	C272.644409,299.875549 280.429382,292.912964 283.334503,277.893036 
	C285.369202,267.373322 283.943329,256.913025 279.891205,247.235886 
	C275.871002,237.634872 268.692719,229.829147 257.992096,228.341675 
	C245.636795,226.624207 234.112442,229.440567 225.073135,239.406250 
	C211.772842,254.069550 210.289642,275.338928 222.573624,289.898102 
M379.065796,244.526215 
	C377.977325,242.684860 377.066711,240.706619 375.771729,239.024216 
	C367.031952,227.669617 349.212921,224.249069 338.600494,236.389771 
	C329.197723,247.146622 325.614044,259.406372 325.908997,273.419769 
	C326.271393,290.639587 337.279175,302.015015 354.293579,302.012970 
	C368.317535,302.011292 380.808197,292.147827 384.020264,278.498779 
	C386.771240,266.808868 383.352936,255.929901 379.065796,244.526215 
M303.334839,293.093079 
	C301.729553,294.333649 299.759888,295.701630 302.271698,297.657776 
	C306.118347,300.653473 313.228027,299.868561 317.966339,295.326111 
	C315.649750,294.392151 313.921051,293.296875 312.078033,293.048096 
	C309.492584,292.699036 306.822174,292.979523 303.334839,293.093079 
z"/>
<path fill="#F7F7F7" opacity="1.000000" stroke="none" 
	d="
M222.317810,289.648560 
	C210.289642,275.338928 211.772842,254.069550 225.073135,239.406250 
	C234.112442,229.440567 245.636795,226.624207 257.992096,228.341675 
	C268.692719,229.829147 275.871002,237.634872 279.891205,247.235886 
	C283.943329,256.913025 285.369202,267.373322 283.334503,277.893036 
	C280.429382,292.912964 272.644409,299.875549 257.271393,300.904358 
	C251.364822,301.299683 245.333160,301.026886 239.452545,300.298920 
	C232.420486,299.428406 227.180481,295.030090 222.317810,289.648560 
M268.023071,273.198608 
	C269.846344,266.805237 270.573120,260.532684 265.940216,254.877655 
	C263.109375,251.422211 260.592194,251.449966 257.991638,255.179443 
	C253.746933,261.266785 253.019928,267.851746 256.638824,274.358185 
	C257.788818,276.425720 260.496490,278.832703 262.510620,278.850067 
	C264.270020,278.865295 266.056519,275.740997 268.023071,273.198608 
z"/>
<path fill="#F7F7F7" opacity="1.000000" stroke="none" 
	d="
M379.312134,244.816864 
	C383.352936,255.929901 386.771240,266.808868 384.020264,278.498779 
	C380.808197,292.147827 368.317535,302.011292 354.293579,302.012970 
	C337.279175,302.015015 326.271393,290.639587 325.908997,273.419769 
	C325.614044,259.406372 329.197723,247.146622 338.600494,236.389771 
	C349.212921,224.249069 367.031952,227.669617 375.771729,239.024216 
	C377.066711,240.706619 377.977325,242.684860 379.312134,244.816864 
M342.020538,261.203949 
	C342.015656,265.007446 341.902771,268.814575 342.032013,272.613525 
	C342.210938,277.873291 344.993622,280.954773 349.258911,280.884918 
	C353.987122,280.807465 355.994202,278.389923 355.986450,272.693451 
	C355.981934,269.384247 356.779205,265.725189 355.633331,262.855377 
	C354.233215,259.348755 351.174774,256.504333 348.833435,253.373566 
	C346.700684,255.570465 344.567230,257.766693 342.437134,259.966125 
	C342.322937,260.084076 342.237061,260.229431 342.020538,261.203949 
z"/>
<path fill="#F5F5F5" opacity="1.000000" stroke="none" 
	d="
M303.761475,293.041901 
	C306.822174,292.979523 309.492584,292.699036 312.078033,293.048096 
	C313.921051,293.296875 315.649750,294.392151 317.966339,295.326111 
	C313.228027,299.868561 306.118347,300.653473 302.271698,297.657776 
	C299.759888,295.701630 301.729553,294.333649 303.761475,293.041901 
z"/>
<path fill="#060606" opacity="1.000000" stroke="none" 
	d="
M267.927063,273.601166 
	C266.056519,275.740997 264.270020,278.865295 262.510620,278.850067 
	C260.496490,278.832703 257.788818,276.425720 256.638824,274.358185 
	C253.019928,267.851746 253.746933,261.266785 257.991638,255.179443 
	C260.592194,251.449966 263.109375,251.422211 265.940216,254.877655 
	C270.573120,260.532684 269.846344,266.805237 267.927063,273.601166 
z"/>
<path fill="#050505" opacity="1.000000" stroke="none" 
	d="
M342.079285,260.783020 
	C342.237061,260.229431 342.322937,260.084076 342.437134,259.966125 
	C344.567230,257.766693 346.700684,255.570465 348.833435,253.373566 
	C351.174774,256.504333 354.233215,259.348755 355.633331,262.855377 
	C356.779205,265.725189 355.981934,269.384247 355.986450,272.693451 
	C355.994202,278.389923 353.987122,280.807465 349.258911,280.884918 
	C344.993622,280.954773 342.210938,277.873291 342.032013,272.613525 
	C341.902771,268.814575 342.015656,265.007446 342.079285,260.783020 
z"/>
</svg>