<?xml version="1.0" encoding="utf-8"?>
<svg viewBox="-121.2495 -121.1465 628.226 628.225" xmlns="http://www.w3.org/2000/svg">
  <path fill="#F8F8F8" opacity="1.000000" stroke="none" d="M 157.864 -107.033 C 180.885 -107.033 203.906 -107.033 227.091 -106.67 C 230.339 -105.551 233.414 -104.753 236.509 -104.044 C 252.488 -100.384 268.645 -97.361 284.412 -92.945 C 303.611 -87.567 321.637 -79.162 339.107 -69.463 C 358.59 -58.645 376.784 -45.997 393.128 -30.99 C 407.551 -17.748 421.075 -3.576 432.877 12.264 C 451.778 37.634 466.56 65.05 476.874 94.907 C 483.734 114.767 488.757 135.056 490.941 156.003 C 491.015 156.717 492.197 157.315 492.863 157.966 C 492.863 180.987 492.863 204.008 492.5 227.193 C 491.381 230.441 490.584 233.516 489.875 236.611 C 486.215 252.591 483.191 268.747 478.775 284.514 C 473.398 303.713 464.994 321.738 455.294 339.208 C 444.477 358.691 431.829 376.886 416.822 393.229 C 403.579 407.652 389.407 421.176 373.568 432.977 C 348.198 451.879 320.782 466.661 290.923 476.976 C 271.064 483.836 250.775 488.859 229.827 491.043 C 229.114 491.117 228.516 492.299 227.864 492.965 C 204.843 492.965 181.822 492.965 158.638 492.602 C 155.39 491.483 152.315 490.686 149.219 489.977 C 133.24 486.317 117.084 483.293 101.317 478.877 C 82.118 473.5 64.091 465.095 46.622 455.395 C 27.139 444.578 8.944 431.93 -7.4 416.923 C -21.822 403.68 -35.346 389.508 -47.148 373.669 C -66.05 348.299 -80.831 320.883 -91.146 291.025 C -98.006 271.166 -103.029 250.876 -105.213 229.929 C -105.288 229.216 -106.47 228.618 -107.136 227.966 C -107.136 204.945 -107.136 181.924 -106.773 158.74 C -105.654 155.492 -104.856 152.417 -104.147 149.322 C -100.487 133.342 -97.464 117.186 -93.048 101.419 C -87.671 82.22 -79.265 64.194 -69.565 46.725 C -58.748 27.242 -46.1 9.047 -31.093 -7.297 C -17.851 -21.719 -3.679 -35.244 12.161 -47.045 C 37.531 -65.947 64.947 -80.728 94.806 -91.043 C 114.665 -97.904 134.954 -102.926 155.901 -105.11 C 156.615 -105.185 157.213 -106.367 157.864 -107.033 M 265.877 -28.612 C 259.29 -35.009 251.296 -35.21 246.639 -27.419 C 240.518 -17.178 235.133 -6.256 231.179 4.987 C 223.71 26.23 217.464 47.903 210.762 69.414 C 208.719 75.969 206.15 77.911 199.374 77.882 C 193.226 77.855 187.071 77.803 180.93 78.038 C 171.903 78.383 171.907 78.487 170.845 69.256 C 170.807 68.926 170.823 68.581 170.732 68.267 C 166.712 54.374 163.425 40.213 158.471 26.661 C 151.934 8.776 144.275 -8.713 136.654 -26.178 C 135.028 -29.903 132.099 -33.811 128.699 -35.844 C 122.977 -39.266 116.943 -36.212 113.082 -28.867 C 97.929 -0.049 84.806 29.542 77.204 61.417 C 73.11 78.582 69.662 95.788 70.009 113.447 C 70.231 124.709 72.169 135.932 72.516 147.197 C 72.742 154.538 71.276 161.915 70.956 169.293 C 70.507 179.663 69.609 190.148 75.469 200.067 C 73.597 200.415 72.514 200.727 71.414 200.804 C 60.65 201.55 49.888 202.353 39.113 202.91 C 36.245 203.058 35.085 203.772 36.273 206.969 C 37.566 206.969 38.875 207.036 40.175 206.958 C 51.28 206.291 62.381 205.537 73.492 204.988 C 74.901 204.918 77.115 205.452 77.667 206.433 C 79.936 210.464 81.706 214.775 83.564 218.777 C 74.689 220.885 66.049 222.897 57.431 224.998 C 51.984 226.327 46.542 227.699 41.164 229.276 C 40.234 229.549 39.632 230.942 38.879 231.818 C 39.934 232.258 40.957 232.868 42.056 233.08 C 42.811 233.226 43.681 232.857 44.483 232.654 C 55.64 229.831 66.764 226.871 77.958 224.206 C 86.956 222.063 90.664 223.899 94.806 232.254 C 82.014 239.441 69.157 246.575 56.417 253.912 C 54.404 255.07 52.92 257.146 51.191 258.797 C 51.562 259.315 51.934 259.833 52.305 260.352 C 54.208 259.608 56.201 259.037 57.998 258.093 C 68.796 252.423 79.605 246.774 90.295 240.907 C 97.657 236.866 104.07 236.997 111.001 242.516 C 115.658 246.225 121.576 248.522 127.194 250.795 C 131.368 252.484 133.715 254.227 131.859 259.121 C 127.068 271.75 122.452 284.446 117.783 297.121 C 108.58 322.098 95.908 345.445 84.2 369.264 C 75.733 386.488 69.032 404.473 65.755 423.641 C 133.021 423.641 199.919 423.641 267.384 423.641 C 266.287 415.417 266.078 407.356 264.045 399.785 C 256.633 372.187 246.646 345.256 242.338 316.859 C 239.613 298.904 237.358 280.877 234.834 262.891 C 234.265 258.829 235.999 256.874 239.876 255.85 C 251.084 252.89 261.733 248.443 271.023 241.473 C 274.866 238.591 278.278 238.622 282.531 239.573 C 297.899 243.012 312.432 248.644 326.546 255.509 C 327.641 256.041 329.048 255.931 330.31 256.12 C 316.097 242.833 296.827 241.597 280.01 234.053 C 283.349 230.056 286.011 226.428 289.168 223.3 C 290.492 221.988 292.871 221.104 294.763 221.117 C 301.581 221.162 308.448 221.256 315.196 222.115 C 323.178 223.131 331.074 224.873 338.971 226.475 C 342.305 227.152 345.549 228.278 348.834 229.199 C 348.953 228.66 349.072 228.12 349.191 227.581 C 331.905 217.374 312.023 220.368 293.382 217.656 C 292.75 210.277 296.666 202.717 301.41 202.011 C 315.644 199.894 329.865 197.455 344.359 199.437 C 344.935 199.516 345.655 198.548 346.307 198.067 C 346.21 197.624 346.114 197.181 346.017 196.737 C 330.634 194.568 315.263 197.075 299.84 198.322 C 299.781 197.349 299.613 196.833 299.742 196.407 C 304.051 182.252 302.101 168.267 298.957 154.22 C 298.036 150.109 297.983 145.723 298.115 141.481 C 298.217 138.24 299.722 135.033 299.767 131.8 C 299.964 117.609 300.865 103.323 299.596 89.243 C 298.152 73.232 295.18 57.297 291.901 41.53 C 289.667 30.787 285.754 20.394 282.613 9.838 C 278.666 -3.429 275.017 -16.82 265.877 -28.612 Z" style="transform-origin: 192.863px 192.966px;" transform="matrix(0.998837053776, -0.048208005726, 0.048208005726, 0.998837053776, 0.00001211717, 0.000012758895)"/>
  <path fill="#010101" opacity="1.000000" stroke="none" d="M 266.139 -28.328 C 275.028 -16.803 278.677 -3.412 282.624 9.855 C 285.765 20.411 289.678 30.804 291.912 41.547 C 295.191 57.314 298.163 73.249 299.607 89.26 C 300.876 103.34 299.975 117.626 299.778 131.817 C 299.733 135.05 298.228 138.257 298.126 141.498 C 297.994 145.74 298.047 150.126 298.968 154.237 C 302.112 168.284 304.062 182.269 299.753 196.424 C 299.624 196.85 299.792 197.366 299.851 198.339 C 315.274 197.092 330.645 194.585 346.028 196.754 C 346.125 197.198 346.221 197.641 346.318 198.084 C 345.666 198.565 344.946 199.533 344.37 199.454 C 329.876 197.472 315.655 199.911 301.421 202.028 C 296.677 202.734 292.761 210.294 293.393 217.673 C 312.034 220.385 331.916 217.391 349.202 227.598 C 349.083 228.137 348.964 228.677 348.845 229.216 C 345.56 228.295 342.316 227.169 338.982 226.492 C 331.085 224.89 323.189 223.148 315.207 222.132 C 308.459 221.273 301.592 221.179 294.774 221.134 C 292.882 221.121 290.503 222.005 289.179 223.317 C 286.022 226.445 283.36 230.073 280.021 234.07 C 296.838 241.614 316.108 242.85 330.321 256.137 C 329.059 255.948 327.652 256.058 326.557 255.526 C 312.443 248.661 297.91 243.029 282.542 239.59 C 278.289 238.639 274.877 238.608 271.034 241.49 C 261.744 248.46 251.095 252.907 239.887 255.867 C 236.01 256.891 234.276 258.846 234.845 262.908 C 237.369 280.894 239.624 298.921 242.349 316.876 C 246.657 345.273 256.644 372.204 264.056 399.802 C 266.089 407.373 266.298 415.434 267.395 423.658 C 199.93 423.658 133.032 423.658 65.766 423.658 C 69.043 404.49 75.744 386.505 84.211 369.281 C 95.919 345.462 108.591 322.115 117.794 297.138 C 122.463 284.463 127.079 271.767 131.87 259.138 C 133.726 254.244 131.379 252.501 127.205 250.812 C 121.587 248.539 115.669 246.242 111.012 242.533 C 104.081 237.014 97.668 236.883 90.306 240.924 C 79.616 246.791 68.807 252.44 58.009 258.11 C 56.212 259.054 54.219 259.625 52.316 260.369 C 51.945 259.85 51.573 259.332 51.202 258.814 C 52.931 257.163 54.415 255.087 56.428 253.929 C 69.168 246.592 82.025 239.458 94.817 232.271 C 90.675 223.916 86.967 222.08 77.969 224.223 C 66.775 226.888 55.651 229.848 44.494 232.671 C 43.692 232.874 42.822 233.243 42.067 233.097 C 40.968 232.885 39.945 232.275 38.89 231.835 C 39.643 230.959 40.245 229.566 41.175 229.293 C 46.553 227.716 51.995 226.344 57.442 225.015 C 66.06 222.914 74.7 220.902 83.575 218.794 C 81.717 214.792 79.947 210.481 77.678 206.45 C 77.126 205.469 74.912 204.935 73.503 205.005 C 62.392 205.554 51.291 206.308 40.186 206.975 C 38.886 207.053 37.577 206.986 36.284 206.986 C 35.096 203.789 36.256 203.075 39.124 202.927 C 49.899 202.37 60.661 201.567 71.425 200.821 C 72.525 200.744 73.608 200.432 75.48 200.084 C 69.62 190.165 70.518 179.68 70.967 169.31 C 71.287 161.932 72.753 154.555 72.527 147.214 C 72.18 135.949 70.242 124.726 70.02 113.464 C 69.673 95.805 73.121 78.599 77.215 61.434 C 84.817 29.559 97.94 -0.032 113.093 -28.85 C 116.954 -36.195 122.988 -39.249 128.71 -35.827 C 132.11 -33.794 135.039 -29.886 136.665 -26.161 C 144.286 -8.696 151.945 8.793 158.482 26.678 C 163.436 40.23 166.723 54.391 170.743 68.284 C 170.834 68.598 170.818 68.943 170.856 69.273 C 171.918 78.504 171.914 78.4 180.941 78.055 C 187.082 77.82 193.237 77.872 199.385 77.899 C 206.161 77.928 208.73 75.986 210.773 69.431 C 217.475 47.92 223.721 26.247 231.19 5.004 C 235.144 -6.239 240.529 -17.161 246.65 -27.402 C 251.307 -35.193 259.301 -34.992 266.139 -28.328 M 114.449 181.881 C 119.056 187.013 124.296 191.412 131.328 192.282 C 137.208 193.01 143.24 193.283 149.147 192.888 C 164.52 191.859 172.305 184.896 175.21 169.876 C 177.244 159.357 175.819 148.896 171.766 139.219 C 167.746 129.618 160.568 121.812 149.867 120.325 C 137.512 118.607 125.988 121.424 116.948 131.39 C 103.648 146.053 102.165 167.322 114.449 181.881 M 270.941 136.509 C 269.853 134.668 268.942 132.69 267.647 131.007 C 258.907 119.653 241.088 116.232 230.476 128.373 C 221.073 139.13 217.489 151.39 217.784 165.403 C 218.147 182.623 229.154 193.998 246.169 193.996 C 260.193 193.995 272.683 184.131 275.896 170.482 C 278.647 158.792 275.228 147.913 270.941 136.509 M 195.21 185.076 C 193.605 186.317 191.635 187.685 194.147 189.641 C 197.994 192.637 205.103 191.852 209.842 187.309 C 207.525 186.375 205.796 185.28 203.953 185.031 C 201.368 184.682 198.697 184.963 195.21 185.076 Z" style="transform-origin: 192.512px 193.216px;" transform="matrix(0.998837053776, -0.048208005726, 0.048208005726, 0.998837053776, 0.000012237028, 0.000012323923)"/>
  <path fill="#F7F7F7" opacity="1.000000" stroke="none" d="M 112.481 184.155 C 100.453 169.845 101.936 148.576 115.236 133.913 C 124.276 123.947 135.8 121.13 148.155 122.848 C 158.856 124.335 166.034 132.141 170.054 141.742 C 174.107 151.419 175.532 161.88 173.498 172.399 C 170.593 187.419 162.808 194.382 147.435 195.411 C 141.528 195.806 135.496 195.533 129.616 194.805 C 122.584 193.935 117.344 189.536 112.481 184.155 M 158.186 167.705 C 160.01 161.311 160.736 155.039 156.103 149.384 C 153.273 145.928 150.755 145.956 148.155 149.686 C 143.91 155.773 143.183 162.358 146.802 168.864 C 147.952 170.932 150.66 173.339 152.674 173.356 C 154.433 173.372 156.22 170.247 158.186 167.705 Z" style="opacity: 0.7; transform-origin: 139.356px 158.984px;" transform="matrix(0.998837053776, -0.048208005726, 0.048208005726, 0.998837053776, 0.000009359184, 0.000011761228)"/>
  <path fill="#F7F7F7" opacity="1.000000" stroke="none" d="M 269.396 134.199 C 273.436 145.312 276.855 156.191 274.104 167.881 C 270.891 181.53 258.402 191.394 244.378 191.395 C 227.363 191.397 216.356 180.022 215.993 162.802 C 215.698 148.789 219.282 136.529 228.685 125.772 C 239.297 113.631 257.116 117.052 265.856 128.406 C 267.151 130.089 268.062 132.067 269.396 134.199 M 232.105 150.586 C 232.1 154.39 231.987 158.197 232.116 161.996 C 232.295 167.256 235.078 170.337 239.343 170.267 C 244.071 170.19 246.078 167.772 246.071 162.076 C 246.066 158.766 246.863 155.107 245.718 152.238 C 244.317 148.731 241.259 145.887 238.918 142.756 C 236.785 144.953 234.651 147.149 232.521 149.348 C 232.407 149.466 232.321 149.612 232.105 150.586 Z" style="opacity: 0.7; transform-origin: 245.537px 154.765px;" transform="matrix(0.998837053776, -0.048208005726, 0.048208005726, 0.998837053776, 0.000014747415, 0.000011341765)"/>
  <path fill="#F5F5F5" opacity="1.000000" stroke="none" d="M 195.383 184.603 C 198.443 184.541 201.114 184.26 203.699 184.609 C 205.542 184.858 207.271 185.953 209.588 186.887 C 204.849 191.43 197.74 192.215 193.893 189.219 C 191.381 187.263 193.351 185.895 195.383 184.603 Z" style="opacity: 0.7; transform-origin: 201.15px 187.719px;" transform="matrix(0.998837053776, -0.048208005726, 0.048208005726, 0.998837053776, 0.000011639822, 0.000008952939)"/>
  <path fill="#060606" opacity="1.000000" stroke="none" d="M 158.129 167.495 C 156.259 169.635 154.472 172.76 152.713 172.744 C 150.699 172.727 147.991 170.32 146.841 168.252 C 143.222 161.746 143.949 155.161 148.194 149.074 C 150.794 145.344 153.312 145.316 156.142 148.772 C 160.775 154.427 160.049 160.699 158.129 167.495 Z" style="opacity: 0.7; transform-origin: 152.067px 159.485px;" transform="matrix(0.998837053776, -0.048208005726, 0.048208005726, 0.998837053776, 0.000007895715, 0.00000945807)"/>
  <path fill="#050505" opacity="1.000000" stroke="none" d="M 232.255 150.469 C 232.412 149.916 232.498 149.77 232.612 149.652 C 234.742 147.453 236.876 145.257 239.009 143.06 C 241.35 146.191 244.408 149.035 245.809 152.542 C 246.954 155.411 246.157 159.07 246.162 162.38 C 246.169 168.076 244.162 170.494 239.434 170.571 C 235.169 170.641 232.386 167.56 232.207 162.3 C 232.078 158.501 232.191 154.694 232.255 150.469 Z" style="opacity: 0.7; transform-origin: 239.288px 156.816px;" transform="matrix(0.998837053776, -0.048208005726, 0.048208005726, 0.998837053776, 0.000015171947, 0.000009185233)"/>
</svg>