<svg version="1.1" id="Layer_1" xmlns="http://www.w3.org/2000/svg" xmlns:xlink="http://www.w3.org/1999/xlink" x="0px" y="0px"
	 width="100%" viewBox="0 0 736 992" enable-background="new 0 0 736 992" xml:space="preserve">
<path fill="#000000" opacity="1.000000" stroke="none" 
	d="
M447.250366,705.081665 
	C449.139557,712.598267 449.292755,719.929260 450.321350,727.138733 
	C450.847778,730.828674 449.537598,732.445435 445.406860,732.438477 
	C381.582764,732.330566 317.758453,732.370667 253.934174,732.355957 
	C252.310928,732.355591 250.576645,732.651611 248.968887,731.195740 
	C249.252182,726.904785 250.026306,722.565430 251.199677,718.245911 
	C257.883606,693.640503 269.662964,671.230286 281.014130,648.629028 
	C293.950317,622.871826 304.916138,596.291687 313.830963,568.886658 
	C315.939728,562.404175 315.176788,561.626770 308.712067,558.863464 
	C302.586731,556.245239 296.485107,553.536011 291.159607,549.420349 
	C287.142731,546.316162 282.963348,545.616333 278.101105,547.590698 
	C265.857544,552.562317 254.730453,559.644287 243.057968,565.691101 
	C240.646805,566.940125 238.393341,569.118469 235.033264,567.818909 
	C234.077164,564.511963 236.354080,563.059204 238.678268,561.752991 
	C247.969543,556.531372 257.294830,551.370361 266.598724,546.171082 
	C268.197205,545.277893 269.936859,544.515381 271.281921,543.321411 
	C272.984924,541.809753 276.914307,541.532166 275.805878,538.331848 
	C274.586212,534.810364 271.839355,532.192078 267.540009,532.232422 
	C261.149048,532.292419 254.970978,533.789612 248.964874,535.647339 
	C241.484482,537.961121 233.806717,539.377563 226.278625,541.428345 
	C224.384064,541.944458 222.451187,542.375671 221.834122,539.886963 
	C221.189529,537.287292 223.285294,536.995422 225.126205,536.564148 
	C237.566879,533.650452 249.747635,529.676025 262.358093,527.445129 
	C263.302673,527.278015 264.180237,526.732056 265.298615,526.276855 
	C264.443542,522.177673 262.058685,518.905029 260.546875,515.277222 
	C259.649261,513.123291 257.626801,513.282471 255.816284,513.396179 
	C247.525391,513.916992 239.240829,514.537781 230.950943,515.075684 
	C228.294708,515.248047 225.627319,515.378784 222.968414,515.332825 
	C221.288330,515.303894 218.932785,515.993835 218.750580,513.174438 
	C218.563843,510.285004 220.891937,510.852997 222.623474,510.648407 
	C231.698120,509.576233 240.766251,508.602142 249.935104,508.572052 
	C255.793442,508.552856 257.112000,507.110352 255.607880,502.740417 
	C252.186386,492.799835 252.546371,482.766510 254.628860,472.753418 
	C256.293640,464.748657 255.607605,456.872162 254.414871,448.975220 
	C251.811630,431.739532 252.020447,414.510956 254.313126,397.278961 
	C258.923889,362.623993 270.771576,330.216217 285.517029,298.802856 
	C289.583221,290.140289 293.229004,281.020844 300.007507,273.901154 
	C304.818237,268.848297 312.052063,269.453949 316.386810,275.005707 
	C321.201477,281.172150 322.949707,288.786926 326.025482,295.764679 
	C330.520447,305.962006 334.707397,316.296051 338.965729,326.596588 
	C345.525726,342.464661 349.752747,359.058472 354.105347,375.611023 
	C354.189514,375.931091 354.220886,376.266418 354.261200,376.596497 
	C355.488586,386.641388 355.521118,386.878662 365.489075,385.499481 
	C370.831909,384.760254 376.097778,384.808472 381.418518,385.056885 
	C389.068665,385.414093 391.223114,383.901367 393.546448,376.315186 
	C396.658966,366.152130 399.447357,355.882843 402.816986,345.807007 
	C409.191315,326.746552 414.560669,307.310791 423.509674,289.182159 
	C425.214813,285.727936 426.991241,282.354675 429.580841,279.482941 
	C435.665955,272.735046 444.628174,272.851837 450.303619,279.946899 
	C456.114532,287.211243 459.428192,295.818695 462.240326,304.521149 
	C466.632446,318.113007 470.996399,331.744751 474.534668,345.573883 
	C478.804657,362.262543 482.576050,379.041473 483.535217,396.427338 
	C484.544037,414.713348 484.354584,432.835846 481.514252,450.932404 
	C481.105499,453.536743 481.004333,456.263733 481.764160,458.873779 
	C483.955444,466.401001 484.776642,474.155518 485.820312,481.888031 
	C486.865814,489.633911 485.172974,497.060577 483.452301,505.067963 
	C488.988007,506.562500 494.158508,504.672363 499.244629,504.211456 
	C508.077148,503.411102 516.882446,503.785980 525.699280,503.761597 
	C527.333679,503.757080 529.532532,504.011230 529.404541,506.170410 
	C529.255798,508.680023 527.215698,507.742859 525.560486,507.599304 
	C511.688873,506.396271 498.009277,508.127899 484.426666,510.696960 
	C480.398468,511.458801 476.062012,519.946228 477.265533,523.727600 
	C477.871490,525.631470 479.345886,525.574158 480.854584,525.681396 
	C489.966492,526.329590 499.084869,526.905640 508.185699,527.685486 
	C515.874939,528.344482 523.107422,530.868652 530.246643,533.639526 
	C531.310547,534.052490 532.383240,534.619934 532.616455,536.341980 
	C530.820618,537.997986 528.774963,537.321472 526.825134,536.527344 
	C514.421326,531.475647 501.436462,530.113342 488.192474,530.330872 
	C487.360046,530.344543 486.456512,530.503052 485.704285,530.246948 
	C474.917175,526.573364 469.936127,533.721436 464.635193,541.971130 
	C480.891998,549.529602 499.946503,550.598694 514.094543,563.041016 
	C512.270996,565.760132 510.511627,564.528625 508.764404,563.679260 
	C494.507416,556.748169 479.800323,551.102112 464.236633,547.808716 
	C460.936890,547.110474 458.179352,547.395142 455.308777,549.420349 
	C445.997894,555.989502 435.898285,561.022400 424.795349,563.820496 
	C420.063232,565.013000 417.944153,567.530518 418.258240,572.719238 
	C419.314056,590.161987 422.601807,607.245117 425.814026,624.361816 
	C430.540314,649.546326 436.954834,674.266785 445.509766,698.428345 
	C446.225677,700.450195 446.626068,702.583740 447.250366,705.081665 
M309.328217,498.175598 
	C316.219757,501.653839 323.662292,500.931427 330.905334,500.540161 
	C347.204865,499.659637 354.602417,492.878784 357.957703,477.185059 
	C359.544861,469.761139 357.820587,462.700073 356.809784,455.480743 
	C355.036316,442.814453 347.537659,433.673309 336.333679,429.952179 
	C324.057678,425.875000 311.744202,428.686554 301.863373,438.481049 
	C293.166809,447.101685 289.768494,457.023621 290.023254,469.462494 
	C290.311310,483.525146 298.209167,491.172729 309.328217,498.175598 
M401.351349,473.291565 
	C401.002716,476.172638 401.677826,478.990387 402.467651,481.652039 
	C408.615997,502.371399 429.420929,507.140198 444.238892,497.664307 
	C457.018555,489.491882 462.248505,476.840942 458.494354,461.247040 
	C456.743011,453.972412 455.656494,446.590851 451.048889,440.329926 
	C442.507294,428.723389 425.021851,424.015320 413.712250,437.048157 
	C404.835114,447.277893 401.025757,459.035400 401.351349,473.291565 
M389.706024,497.447815 
	C390.429016,496.666168 391.006531,495.619598 390.259827,494.790558 
	C387.882721,492.151520 384.675934,493.652008 381.833588,493.427856 
	C379.798401,493.267395 377.918823,493.798523 377.718018,496.600372 
	C381.455566,498.489838 385.090027,499.705383 389.706024,497.447815 
z"/>
<path fill="#000000" opacity="1.000000" stroke="none" 
	d="
M343.272583,473.947815 
	C342.104218,477.092957 340.573914,479.601410 337.291199,479.569122 
	C334.349670,479.540192 332.674896,477.174500 331.286011,474.889984 
	C327.716736,469.018890 328.343384,460.149017 332.596130,454.797607 
	C335.509735,451.131409 338.693817,451.044220 341.546265,454.769531 
	C346.021515,460.614166 345.950836,466.993805 343.272583,473.947815 
z"/>
<path fill="#000000" opacity="1.000000" stroke="none" 
	d="
M419.493103,479.662292 
	C415.090668,471.662018 415.162811,463.771057 418.972321,456.119904 
	C421.127533,451.791290 424.480835,451.828949 427.645020,455.477966 
	C433.384888,462.097229 431.728546,469.913361 430.628479,477.306183 
	C430.015045,481.428833 424.998718,482.269073 419.493103,479.662292 
z"/>
</svg>